<?xml version="1.0" encoding="UTF-8" ?>
<!DOCTYPE svg PUBLIC "-//W3C//DTD SVG 1.1//EN" "http://www.w3.org/Graphics/SVG/1.1/DTD/svg11.dtd">
<svg width="600pt" height="600pt" viewBox="0 0 600 600" version="1.1" xmlns="http://www.w3.org/2000/svg">
<g id="#000000ff">
<path fill="#000000" opacity="1.00" d=" M 105.68 0.00 L 494.31 0.00 C 515.38 1.54 536.28 8.11 553.54 20.48 C 569.63 31.80 582.48 47.62 590.34 65.65 C 596.00 78.27 598.80 91.96 600.00 105.69 L 600.00 176.20 C 594.63 170.57 587.68 166.84 581.00 163.01 C 575.36 159.76 569.01 158.08 562.61 157.15 C 562.31 141.78 562.67 126.40 562.46 111.03 C 562.20 95.67 557.01 80.46 547.85 68.13 C 534.14 49.30 511.32 37.49 487.98 37.51 C 362.99 37.47 238.00 37.50 113.00 37.49 C 97.46 37.39 81.93 42.25 69.28 51.30 C 49.51 65.12 37.17 88.85 37.49 113.00 C 37.49 231.34 37.49 349.67 37.49 468.00 C 37.73 479.97 36.57 492.12 39.33 503.89 C 43.56 523.05 55.75 540.22 72.30 550.72 C 84.35 558.49 98.68 562.56 113.00 562.51 C 237.67 562.51 362.33 562.51 486.99 562.51 C 502.54 562.58 518.06 557.73 530.71 548.68 C 546.41 537.62 557.65 520.36 561.16 501.46 C 562.50 494.72 562.58 487.83 562.52 481.00 C 562.48 434.31 562.55 387.61 562.48 340.92 C 562.37 338.89 562.91 336.87 564.49 335.50 C 576.28 323.56 588.41 311.93 600.00 299.79 L 600.00 494.30 C 598.49 513.92 592.81 533.41 581.94 549.94 C 566.81 573.54 542.12 590.58 514.84 596.84 C 508.09 598.44 501.20 599.30 494.31 600.00 L 105.70 600.00 C 90.24 598.71 74.83 595.17 60.93 588.14 C 43.33 579.45 28.18 565.89 17.64 549.33 C 7.02 532.94 1.47 513.69 0.00 494.31 L 0.00 105.69 C 1.08 93.48 3.32 81.29 7.88 69.87 C 17.87 43.88 38.28 22.13 63.60 10.55 C 76.79 4.34 91.21 1.21 105.68 0.00 Z" />
<path fill="#000000" opacity="1.00" d=" M 112.56 112.56 C 237.52 112.48 362.48 112.48 487.44 112.56 C 487.57 124.99 487.43 137.42 487.52 149.86 C 455.69 150.20 423.84 149.90 392.00 150.00 C 331.00 150.00 270.00 150.00 209.00 150.00 C 176.83 149.90 144.65 150.20 112.48 149.86 C 112.57 137.42 112.43 124.99 112.56 112.56 Z" />
<path fill="#000000" opacity="1.00" d=" M 112.54 187.54 C 237.51 187.49 362.48 187.49 487.45 187.54 C 487.02 192.05 489.21 197.82 485.17 201.14 C 478.13 208.11 471.09 215.09 464.16 222.17 C 462.74 223.53 461.26 225.32 459.07 225.00 C 366.71 225.00 274.36 225.00 182.00 225.00 C 158.83 224.90 135.65 225.20 112.48 224.86 C 112.56 212.42 112.45 199.98 112.54 187.54 Z" />
<path fill="#000000" opacity="1.00" d=" M 539.38 199.34 C 542.60 195.95 547.47 195.21 551.93 195.04 C 558.78 194.78 566.97 194.24 571.64 200.35 C 579.09 207.91 586.62 215.39 594.15 222.87 C 598.31 226.67 598.85 232.73 599.05 238.03 C 598.90 243.11 598.42 248.85 594.75 252.73 C 529.41 318.05 464.09 383.40 398.76 448.73 C 397.36 450.41 394.97 449.88 393.05 450.04 C 374.57 449.93 356.08 450.07 337.60 449.97 C 337.34 433.29 337.55 416.61 337.48 399.93 C 337.19 396.56 340.58 394.74 342.52 392.52 C 408.18 328.18 473.77 263.75 539.38 199.34 Z" />
<path fill="#000000" opacity="1.00" d=" M 112.56 262.56 C 216.13 262.49 319.70 262.46 423.27 262.57 C 412.68 274.18 401.05 284.82 390.16 296.17 C 388.38 297.75 386.79 300.31 384.07 300.00 C 298.05 300.00 212.02 300.00 126.00 300.00 C 121.49 300.01 116.98 300.09 112.48 299.86 C 112.57 287.42 112.42 274.99 112.56 262.56 Z" />
<path fill="#000000" opacity="1.00" d=" M 112.56 337.56 C 191.13 337.49 269.70 337.46 348.27 337.57 C 345.05 341.56 341.20 344.96 337.62 348.61 C 329.28 356.93 320.97 365.28 312.64 373.59 C 311.27 375.30 308.99 374.98 307.06 375.04 C 242.20 374.85 177.33 375.22 112.48 374.86 C 112.57 362.42 112.42 349.99 112.56 337.56 Z" />
<path fill="#000000" opacity="1.00" d=" M 112.56 412.56 C 174.99 412.42 237.43 412.59 299.86 412.48 C 300.16 424.96 299.98 437.46 299.96 449.96 C 240.97 450.06 181.98 449.96 123.00 450.01 C 119.49 450.04 115.98 450.03 112.48 449.86 C 112.57 437.42 112.43 424.99 112.56 412.56 Z" />
</g>
</svg>
