<?xml version="1.0" encoding="UTF-8" ?>
<!DOCTYPE svg PUBLIC "-//W3C//DTD SVG 1.1//EN" "http://www.w3.org/Graphics/SVG/1.1/DTD/svg11.dtd">
<svg width="600pt" height="488pt" viewBox="0 0 600 488" version="1.1" xmlns="http://www.w3.org/2000/svg">
<g id="#000000ff">
<path fill="#000000" opacity="1.00" d=" M 15.74 0.00 L 584.16 0.00 C 587.76 1.40 591.45 2.98 594.16 5.83 C 597.10 8.79 598.67 12.75 600.00 16.63 L 600.00 471.32 C 598.68 475.21 597.10 479.19 594.15 482.16 C 591.46 484.99 587.80 486.55 584.25 488.00 L 15.84 488.00 C 12.25 486.59 8.55 485.02 5.84 482.17 C 2.90 479.21 1.32 475.25 0.00 471.38 L 0.00 16.68 C 1.31 12.78 2.89 8.80 5.85 5.84 C 8.54 3.01 12.19 1.44 15.74 0.00 M 427.32 19.40 C 418.07 21.16 411.26 30.69 412.64 40.02 C 413.57 49.81 423.25 57.60 433.02 56.41 C 443.01 55.72 451.12 45.93 449.91 35.99 C 449.24 25.17 437.85 16.81 427.32 19.40 M 483.34 19.45 C 474.20 21.31 467.52 30.77 468.89 40.02 C 469.81 49.73 479.33 57.48 489.03 56.43 C 499.13 55.88 507.41 46.00 506.15 35.96 C 505.47 25.06 493.92 16.71 483.34 19.45 M 539.35 19.51 C 530.34 21.48 523.82 30.82 525.13 39.96 C 526.04 49.96 536.08 57.85 546.03 56.35 C 556.16 55.39 564.07 45.05 562.29 35.00 C 561.05 24.42 549.64 16.71 539.35 19.51 M 33.38 75.51 C 25.39 76.51 18.47 83.74 18.77 91.96 C 18.73 211.98 18.76 332.01 18.75 452.03 C 18.25 461.72 27.58 469.58 36.94 469.00 C 212.31 469.00 387.69 469.00 563.07 469.00 C 572.43 469.56 581.75 461.72 581.27 452.03 C 581.29 334.36 581.26 216.68 581.29 99.00 C 581.18 94.14 581.92 88.91 579.50 84.46 C 576.42 78.50 569.68 75.02 563.06 75.25 C 390.71 75.26 218.35 75.25 46.00 75.25 C 41.79 75.31 37.56 75.01 33.38 75.51 Z" />
<path fill="#000000" opacity="1.00" d=" M 56.17 112.69 C 93.80 112.50 131.44 112.57 169.07 112.66 C 169.14 118.87 169.14 125.08 169.07 131.29 C 131.44 131.37 93.81 131.42 56.18 131.26 C 56.15 125.07 56.16 118.88 56.17 112.69 Z" />
<path fill="#000000" opacity="1.00" d=" M 187.44 112.84 C 189.28 112.71 191.12 112.62 192.96 112.58 C 252.31 112.61 311.65 112.58 371.00 112.59 C 384.85 112.75 398.72 112.27 412.56 112.83 C 412.44 187.75 412.52 262.67 412.52 337.58 C 337.51 337.61 262.49 337.61 187.48 337.58 C 187.48 262.67 187.57 187.75 187.44 112.84 M 353.39 150.61 C 344.86 152.12 338.17 160.32 338.52 169.00 C 338.48 177.39 344.94 185.17 353.16 186.74 C 360.75 188.43 369.10 184.69 372.90 177.93 C 376.64 171.65 376.09 163.17 371.55 157.45 C 367.42 151.98 360.10 149.24 353.39 150.61 M 290.09 212.07 C 280.22 223.33 269.99 234.26 260.25 245.63 C 281.77 269.48 303.13 293.49 324.61 317.36 C 325.85 319.13 328.05 318.85 329.94 318.88 C 347.97 318.77 366.01 318.90 384.04 318.82 C 388.71 319.06 393.12 315.40 393.66 310.75 C 394.28 306.84 391.58 303.54 389.31 300.70 C 362.22 270.45 335.09 240.24 308.01 209.99 C 305.59 207.17 301.84 205.24 298.06 205.98 C 294.56 206.59 292.34 209.62 290.09 212.07 M 216.14 232.12 C 213.20 235.81 209.91 239.21 207.08 242.97 C 206.13 244.07 206.30 245.58 206.23 246.92 C 206.28 270.89 206.24 294.86 206.25 318.84 C 241.89 319.08 277.53 318.89 313.17 318.85 C 287.08 289.29 260.52 260.13 234.33 230.66 C 231.99 227.95 228.90 225.09 225.01 225.60 C 221.05 225.95 218.50 229.31 216.14 232.12 Z" />
<path fill="#000000" opacity="1.00" d=" M 431.24 112.73 C 468.85 112.46 506.48 112.59 544.10 112.66 C 544.18 118.87 544.18 125.08 544.10 131.28 C 506.48 131.35 468.86 131.47 431.25 131.22 C 431.23 125.06 431.24 118.89 431.24 112.73 Z" />
<path fill="#000000" opacity="1.00" d=" M 55.93 150.11 C 93.64 150.07 131.35 150.08 169.05 150.11 C 169.15 156.35 169.16 162.59 169.04 168.83 C 131.34 168.86 93.64 168.86 55.94 168.83 C 55.82 162.59 55.83 156.35 55.93 150.11 Z" />
<path fill="#000000" opacity="1.00" d=" M 431.25 150.13 C 468.95 150.04 506.65 150.11 544.35 150.10 C 544.49 156.35 544.51 162.60 544.34 168.84 C 506.64 168.83 468.95 168.89 431.25 168.81 C 431.23 162.59 431.24 156.36 431.25 150.13 Z" />
<path fill="#000000" opacity="1.00" d=" M 55.92 187.66 C 93.63 187.55 131.35 187.55 169.07 187.66 C 169.14 193.87 169.14 200.08 169.07 206.29 C 131.35 206.38 93.63 206.39 55.92 206.28 C 55.84 200.08 55.84 193.87 55.92 187.66 Z" />
<path fill="#000000" opacity="1.00" d=" M 431.24 187.73 C 468.95 187.45 506.66 187.60 544.37 187.66 C 544.49 193.86 544.49 200.08 544.36 206.29 C 506.66 206.34 468.95 206.47 431.25 206.23 C 431.23 200.06 431.24 193.89 431.24 187.73 Z" />
<path fill="#000000" opacity="1.00" d=" M 55.93 225.11 C 93.64 225.07 131.35 225.08 169.05 225.11 C 169.15 231.35 169.16 237.59 169.04 243.83 C 131.34 243.86 93.64 243.86 55.94 243.83 C 55.82 237.59 55.83 231.35 55.93 225.11 Z" />
<path fill="#000000" opacity="1.00" d=" M 431.25 225.13 C 468.95 225.04 506.65 225.11 544.35 225.10 C 544.49 231.34 544.51 237.60 544.34 243.85 C 506.64 243.83 468.95 243.89 431.25 243.81 C 431.23 237.59 431.24 231.36 431.25 225.13 Z" />
<path fill="#000000" opacity="1.00" d=" M 55.92 262.66 C 93.63 262.55 131.35 262.55 169.07 262.66 C 169.14 268.87 169.14 275.08 169.07 281.29 C 131.35 281.38 93.63 281.39 55.92 281.29 C 55.84 275.08 55.84 268.87 55.92 262.66 Z" />
<path fill="#000000" opacity="1.00" d=" M 431.24 262.73 C 468.95 262.46 506.66 262.60 544.37 262.66 C 544.49 268.86 544.49 275.08 544.37 281.29 C 506.66 281.34 468.95 281.46 431.25 281.23 C 431.23 275.06 431.24 268.89 431.24 262.73 Z" />
<path fill="#000000" opacity="1.00" d=" M 103.35 300.15 C 125.25 300.02 147.15 300.10 169.05 300.11 C 169.15 306.35 169.16 312.59 169.04 318.83 C 147.15 318.83 125.25 318.91 103.36 318.79 C 103.37 312.58 103.38 306.37 103.35 300.15 Z" />
<path fill="#000000" opacity="1.00" d=" M 431.25 300.13 C 453.15 300.04 475.05 300.11 496.95 300.10 C 497.03 306.34 497.03 312.60 496.95 318.85 C 475.05 318.83 453.15 318.89 431.25 318.81 C 431.23 312.59 431.24 306.36 431.25 300.13 Z" />
<path fill="#000000" opacity="1.00" d=" M 56.25 375.13 C 218.75 375.06 381.25 375.06 543.75 375.13 C 543.76 381.36 543.76 387.59 543.75 393.81 C 381.25 393.87 218.75 393.87 56.25 393.81 C 56.23 387.59 56.24 381.36 56.25 375.13 Z" />
<path fill="#000000" opacity="1.00" d=" M 56.24 412.73 C 177.82 412.41 299.41 412.68 421.00 412.59 C 461.92 412.68 502.84 412.41 543.76 412.73 C 543.75 418.89 543.76 425.06 543.75 431.23 C 435.84 431.50 327.92 431.27 220.00 431.34 C 165.42 431.26 110.83 431.51 56.25 431.22 C 56.23 425.06 56.24 418.89 56.24 412.73 Z" />
</g>
</svg>
