<?xml version="1.0" encoding="UTF-8" ?>
<!DOCTYPE svg PUBLIC "-//W3C//DTD SVG 1.1//EN" "http://www.w3.org/Graphics/SVG/1.1/DTD/svg11.dtd">
<svg width="401pt" height="360pt" viewBox="0 0 401 360" version="1.1" xmlns="http://www.w3.org/2000/svg">
<g id="#000000ff">
<path fill="#000000" opacity="1.00" d=" M 10.27 0.00 L 15.40 0.00 C 20.93 0.57 26.48 0.88 32.03 1.13 C 97.59 4.61 163.14 8.15 228.70 11.63 C 232.94 11.93 237.25 11.73 241.42 12.66 C 245.48 13.68 248.07 17.90 247.78 21.98 C 247.23 38.63 245.71 55.25 245.53 71.92 C 260.03 75.28 274.54 78.60 289.06 81.90 C 292.20 82.60 295.58 83.87 297.18 86.89 C 299.56 90.90 297.70 95.62 296.86 99.80 C 292.73 117.95 288.31 136.03 284.53 154.25 C 319.69 154.58 354.85 154.27 390.01 154.40 C 393.02 154.38 396.19 155.40 398.08 157.87 C 399.99 160.09 400.16 163.16 400.22 165.95 C 400.15 208.99 400.22 252.03 400.18 295.06 C 400.66 300.62 395.34 304.87 390.04 304.39 C 349.34 304.39 308.63 304.40 267.92 304.38 C 267.25 315.93 267.62 327.53 267.73 339.10 C 288.82 339.36 309.93 339.05 331.02 339.22 C 334.82 339.14 338.62 341.32 340.03 344.93 C 342.71 350.62 338.47 358.19 332.02 358.26 C 307.65 358.80 283.24 357.83 258.87 358.76 C 233.92 357.91 208.92 358.70 183.96 358.32 C 178.92 358.43 174.50 354.02 174.59 349.00 C 174.29 343.84 178.76 339.09 183.96 339.25 C 205.39 339.02 226.83 339.38 248.26 339.09 C 248.37 327.53 248.72 315.93 248.07 304.38 C 207.70 304.42 167.34 304.35 126.97 304.42 C 123.66 304.45 119.94 304.01 117.66 301.32 C 114.52 298.03 115.26 293.14 115.14 288.99 C 115.48 270.30 114.64 251.57 115.62 232.89 C 82.34 224.81 48.82 217.71 15.56 209.53 C 11.14 208.37 5.93 207.97 2.79 204.24 C -0.10 200.85 0.70 196.10 0.66 192.01 C 1.84 135.01 2.85 78.01 3.95 21.01 C 4.12 16.45 3.81 11.85 4.47 7.33 C 4.90 3.97 7.91 2.01 10.27 0.00 M 23.31 20.99 C 22.77 71.99 21.89 122.99 21.24 173.99 C 21.21 179.57 20.87 185.16 21.20 190.74 C 22.74 190.88 24.29 191.04 25.84 191.17 C 37.37 140.63 48.93 90.09 60.53 39.57 C 61.47 34.44 66.77 30.71 71.92 32.01 C 123.35 43.64 174.66 55.83 226.12 67.30 C 226.82 55.33 227.55 43.35 227.86 31.35 C 163.59 28.02 99.31 24.61 35.04 21.20 C 31.13 21.07 27.21 20.47 23.31 20.99 M 78.07 53.10 C 66.71 100.75 55.63 148.47 44.49 196.18 C 50.36 198.06 56.45 199.05 62.42 200.56 C 122.97 214.50 183.48 228.67 244.06 242.47 C 249.28 221.32 253.87 200.01 258.86 178.81 C 264.85 152.25 271.31 125.80 277.01 99.18 C 265.35 96.37 253.65 93.78 241.99 91.00 C 238.06 89.92 233.78 90.66 230.03 88.88 C 227.09 87.55 223.96 86.76 220.82 86.09 C 173.22 75.17 125.69 63.94 78.07 53.10 M 279.55 175.20 C 273.47 201.88 267.35 228.56 261.26 255.24 C 260.54 258.56 258.58 261.89 255.32 263.24 C 252.83 263.94 250.17 263.63 247.66 263.17 C 209.90 254.50 172.17 245.68 134.38 237.15 C 134.38 253.08 134.42 269.00 134.35 284.93 C 136.23 285.07 138.10 285.19 139.98 285.21 C 220.30 285.10 300.63 285.30 380.95 285.11 C 381.05 247.98 381.01 210.84 380.97 173.71 C 348.63 173.43 316.28 173.71 283.94 173.57 C 282.41 173.83 279.77 172.93 279.55 175.20 Z" />
<path fill="#000000" opacity="1.00" d=" M 88.31 78.27 C 90.61 77.63 93.01 78.21 95.29 78.67 C 109.92 82.08 124.59 85.36 139.24 88.71 C 142.36 89.40 145.49 91.11 146.91 94.11 C 148.35 96.93 147.68 100.17 147.03 103.10 C 143.05 120.08 139.24 137.10 135.35 154.10 C 134.69 157.03 133.35 160.08 130.63 161.64 C 127.62 163.29 124.01 162.91 120.79 162.19 C 106.67 158.93 92.55 155.71 78.41 152.54 C 75.51 151.90 72.45 150.85 70.62 148.36 C 68.63 145.76 68.46 142.27 69.28 139.20 C 73.41 121.34 77.43 103.44 81.56 85.58 C 82.26 82.14 84.87 79.16 88.31 78.27 M 99.08 98.76 C 96.06 110.80 93.42 122.93 90.69 135.04 C 99.99 137.56 109.42 139.63 118.83 141.70 C 121.49 129.51 124.63 117.42 127.01 105.18 C 117.71 102.99 108.44 100.65 99.08 98.76 Z" />
<path fill="#000000" opacity="1.00" d=" M 163.40 94.44 C 165.37 93.88 167.43 94.29 169.40 94.67 C 196.34 100.74 223.29 106.72 250.24 112.72 C 253.16 113.31 256.10 114.73 257.55 117.46 C 260.73 122.60 257.70 130.25 251.86 131.80 C 247.41 132.95 242.93 131.28 238.61 130.35 C 214.00 124.63 189.39 118.92 164.78 113.24 C 161.35 112.61 158.10 110.46 156.93 107.06 C 154.85 102.01 158.11 95.73 163.40 94.44 Z" />
<path fill="#000000" opacity="1.00" d=" M 157.34 121.32 C 160.71 120.80 164.00 122.05 167.26 122.71 C 192.71 128.62 218.18 134.46 243.65 140.31 C 246.06 140.88 248.56 141.82 250.12 143.86 C 253.43 147.78 252.86 154.58 248.44 157.45 C 245.53 159.57 241.69 159.45 238.34 158.69 C 211.51 152.47 184.66 146.34 157.83 140.15 C 154.09 139.46 150.77 136.67 149.97 132.88 C 148.67 127.84 152.21 122.23 157.34 121.32 Z" />
<path fill="#000000" opacity="1.00" d=" M 150.46 149.56 C 152.35 149.10 154.30 149.49 156.18 149.87 C 183.49 156.27 210.86 162.43 238.18 168.82 C 243.87 169.85 247.22 176.53 244.96 181.78 C 243.06 186.81 236.85 188.33 232.08 186.96 C 205.25 180.78 178.43 174.58 151.59 168.43 C 147.93 167.79 144.47 165.31 143.50 161.59 C 141.89 156.55 145.29 150.69 150.46 149.56 Z" />
<path fill="#000000" opacity="1.00" d=" M 67.48 165.47 C 71.17 163.33 75.40 165.03 79.22 165.80 C 127.73 176.96 176.27 188.06 224.80 199.15 C 228.53 200.15 232.88 200.33 235.75 203.23 C 239.50 206.90 239.36 213.86 235.13 217.11 C 232.13 219.60 227.94 219.49 224.34 218.65 C 173.10 206.87 121.84 195.15 70.59 183.43 C 66.93 182.79 63.47 180.32 62.50 176.60 C 61.10 172.28 63.53 167.45 67.48 165.47 Z" />
</g>
</svg>
