<?xml version="1.0" encoding="utf-8"?>
<!-- Svg Vector Icons : http://www.onlinewebfonts.com/icon -->
<!DOCTYPE svg PUBLIC "-//W3C//DTD SVG 1.1//EN" "http://www.w3.org/Graphics/SVG/1.1/DTD/svg11.dtd">
<svg version="1.1" xmlns="http://www.w3.org/2000/svg" xmlns:xlink="http://www.w3.org/1999/xlink" x="0px" y="0px" viewBox="0 0 1000 1000" enable-background="new 0 0 1000 1000" xml:space="preserve">
<metadata> Svg Vector Icons : http://www.onlinewebfonts.com/icon </metadata>
<g><g transform="translate(0.000000,512.000000) scale(0.100000,-0.100000)"><path d="M712.4,4994.2c-281.3-78.5-511-310-585.6-593.2c-21.1-78.5-26.8-394.2-26.8-1634.3V1228l55.5-55.5c67-65.1,93.8-67,252.6-17.2c151.2,45.9,287.1,137.8,409.5,271.7l93.8,103.3l126.3-128.2c396.1-403.8,1008.5-400,1402.7,9.6l111,114.8l76.5-88c363.6-426.7,1037.2-445.9,1429.5-38.3l124.4,128.2l135.9-135.9c86.1-84.2,176.1-153.1,246.9-187.5c405.7-191.4,849.7-105.3,1152,220.1l95.7,103.3l126.3-128.2c334.9-340.6,843.9-394.2,1242-126.3c63.2,42.1,149.3,114.8,191.4,164.6l76.6,89.9l76.5-89.9c367.4-426.7,1033.4-445.9,1433.4-38.3l126.3,128.2l95.7-103.3c126.3-135.9,260.3-223.9,409.5-269.8c160.7-49.8,185.6-47.8,252.6,19.1l57.4,55.5l-5.7,1584.5l-5.7,1584.5l-61.2,130.1c-84.2,178-227.7,323.4-405.7,411.4l-143.5,70.8l-4238.8,3.8C1682.6,5017.1,781.3,5013.3,712.4,4994.2z M9295.3,4644c89.9-47.8,181.8-141.6,231.5-235.4c34.5-63.1,36.4-143.5,42.1-1479.3c3.8-1366.4,3.8-1412.3-30.6-1393.2c-63.1,32.5-197.1,193.3-239.2,285.1c-42.1,88-42.1,111-51.7,1272.6l-9.6,1184.6l-53.6,45.9c-28.7,24.9-70.8,45.9-89.9,45.9c-57.4,0-128.2-38.3-151.2-84.2c-13.4-26.8-22.9-400-24.9-1198l-5.7-1157.8l-63.1-128.2c-139.7-283.2-438.2-426.7-732.9-350.2c-155,38.3-287.1,122.5-371.3,239.2c-128.2,174.1-124.4,134-124.4,1385.5c0,1039.1-1.9,1136.7-34.4,1198c-63.1,126.3-212.4,126.3-275.6,0c-32.5-61.2-34.4-160.7-34.4-1205.6V1930.4l-45.9-99.5c-67-141.6-120.6-206.7-229.6-283.2c-334.9-227.7-773.1-109.1-953,254.5l-63.1,128.2l-5.7,1157.8c-1.9,798-11.5,1171.2-24.9,1198c-23,45.9-93.8,84.2-151.2,84.2c-19.1,0-61.2-21-89.9-45.9l-53.6-45.9l-9.6-1184.6c-9.6-1165.4-9.6-1184.6-51.7-1272.6c-151.2-327.2-541.6-478.4-861.2-333c-139.7,63.2-273.7,197.1-336.8,333c-42.1,88-42.1,107.2-51.7,1272.6l-9.6,1184.6l-53.6,45.9c-28.7,24.9-70.8,45.9-89.9,45.9c-57.4,0-128.2-38.3-151.2-84.2c-13.4-26.8-23-400-24.9-1198l-5.7-1157.8l-49.8-107.2c-70.8-149.3-172.2-256.4-311.9-321.5c-155-74.6-281.3-90-434.4-49.8c-155,38.3-287.1,122.5-369.3,235.4c-128.2,178-126.3,151.2-126.3,1397c0,1031.5-1.9,1129.1-34.4,1188.4c-57.4,114.8-200.9,128.2-266,26.8c-32.5-47.8-34.4-147.3-44-1230.5l-9.6-1176.9l-45.9-86.1c-70.8-134-116.7-187.5-220.1-258.3c-334.9-227.7-773.1-109.1-953,254.5l-63.1,128.2l-5.7,1157.8c-1.9,798-11.5,1171.2-24.9,1198c-23,45.9-93.8,84.2-151.2,84.2c-19.1,0-61.2-21-89.9-45.9l-53.6-45.9l-9.6-1184.6c-9.6-1161.6-9.6-1184.6-51.7-1272.6c-42.1-91.9-176-252.6-239.2-285.1c-34.4-19.1-34.4,26.8-30.6,1393.2c5.7,1335.8,7.7,1416.1,42.1,1479.3c68.9,130.1,185.6,229.6,317.7,269.8c26.8,7.7,1934.7,13.4,4238.8,11.5l4191-3.8L9295.3,4644z"/><path d="M473.2,801.3l-47.8-45.9v-2547.1v-2549l55.5-55.5l55.5-55.5h430.6h430.6l7.7-118.7c7.7-97.6,17.2-124.4,61.2-162.7c68.9-57.4,153.1-57.4,212.4,3.8c45.9,44,47.8,57.4,47.8,277.5c0,220.1-1.9,233.5-47.8,277.5l-45.9,47.8h-442.1H750.7v2440V755.4l-47.8,45.9C639.7,866.4,536.3,866.4,473.2,801.3z"/><path d="M9295.3,801.3l-47.8-45.9v-920.5v-920.5l47.8-45.9c45.9-47.8,124.4-61.2,191.4-36.4c82.3,32.5,86.1,72.7,86.1,1021.9v901.3l-47.8,45.9C9461.8,866.4,9358.4,866.4,9295.3,801.3z"/><path d="M2346.7,600.4c-285.1-30.6-522.4-134-666-287.1c-47.8-51.7-91.9-116.7-99.5-145.4c-7.7-32.5,21-294.7,72.7-652.6c76.5-535.8,89.9-604.7,130.1-646.8c55.5-59.3,147.4-63.1,218.2-7.7c67,51.7,65.1,86.1-26.8,706.2l-74.6,507.1l61.2,53.6c84.2,72.7,239.2,126.3,426.8,145.4c306.2,30.6,614.3-28.7,748.3-145.4l61.2-53.6L3123.6-433c-91.9-620-93.8-654.5-26.8-706.2c68.9-55.5,162.7-51.7,216.2,5.7c40.2,42.1,53.6,114.8,130.1,648.7c49.7,344.5,82.3,625.8,74.6,654.5c-19.1,76.5-170.3,227.7-296.6,294.7C3006.9,579.3,2650.9,632.9,2346.7,600.4z"/><path d="M5955.9,407.1c-166.5-74.6-279.4-223.9-300.5-399.9c-9.6-86.1-5.7-97.6,47.8-151.2c40.2-40.2,76.5-59.3,118.7-59.3c78.5,0,153.1,74.6,153.1,153.1c0,82.3,90,172.2,172.2,172.2c78.4,0,153.1-74.6,153.1-153.1c0-82.3,90-172.2,172.2-172.2c153.1,0,202.8,189.4,99.5,384.6C6453.5,410.9,6181.7,510.4,5955.9,407.1z"/><path d="M7247.6,403.3c-170.3-80.4-279.4-243-285.2-421c-1.9-80.4,5.8-99.5,51.7-139.7c109.1-93.8,244.9-32.5,271.7,122.5c36.4,216.2,292.8,202.8,327.2-15.3c23-143.5,162.7-199,269.8-107.2c45.9,40.2,53.6,59.3,51.7,139.7c-7.7,252.6-200.9,442.1-467,459.3C7366.3,447.3,7326.1,441.5,7247.6,403.3z"/><path d="M2440.4-249.3l-53.6-45.9v-392.3c0-390.4,0-394.2,45.9-442.1c65.1-68.9,168.4-68.9,233.5,0c44,47.9,45.9,61.3,51.7,375.1c3.8,179.9,1.9,355.9-5.7,392.3C2685.4-216.8,2545.7-159.4,2440.4-249.3z"/><path d="M5362.6-545.9c-202.8-65.1-336.8-229.6-357.9-432.5c-9.6-91.9-5.7-107.2,38.3-151.2c101.4-101.4,281.3-36.3,281.3,103.3c0,76.6,89.9,172.2,162.7,172.2c61.3,0,162.7-93.8,162.7-153.1c0-55.5,49.7-145.4,86.1-160.8c68.9-24.9,145.4-11.5,195.2,38.3c42.1,42.1,47.8,61.3,40.2,147.4c-15.3,176.1-111,317.7-269.8,398C5617.2-540.2,5439.2-521.1,5362.6-545.9z"/><path d="M6627.6-561.2c-124.4-44-260.3-187.5-296.6-313.9c-42.1-137.8-38.3-176,19.1-245c95.7-114.8,243-65,277.5,93.8c11.5,47.8,32.5,99.5,49.8,118.7c74.6,82.3,243,45.9,266-57.4c24.9-109.1,32.5-130.1,70.8-170.3c49.8-55.5,143.5-57.4,212.4-3.8c42.1,32.5,49.7,53.6,49.7,139.7C7276.3-678,6941.4-450.3,6627.6-561.2z"/><path d="M7946.1-557.4c-185.6-57.4-325.3-248.8-325.3-442.1c0-86.1,7.7-107.2,49.7-139.7c68.9-53.6,162.7-51.7,212.4,3.8c38.3,40.2,45.9,61.2,70.8,170.3c22.9,103.3,191.4,139.7,266,57.4c17.2-19.1,38.3-70.8,49.8-118.7c34.4-158.8,181.8-208.6,277.5-93.8c57.4,68.9,61.2,107.2,19.1,245c-55.5,189.5-271.7,348.3-465,344.5C8062.9-530.6,7994-544,7946.1-557.4z"/><path d="M1171.7-1529.6c-103.3-51.7-120.6-179.9-38.3-262.2c38.3-38.3,80.4-38.3,4076.2-38.3h4037.9v-1148.2v-1148.2h-440.1h-442.1l-45.9-47.8c-45.9-44-47.8-57.4-47.8-277.5c0-220.1,1.9-233.5,47.8-277.5c59.3-61.2,143.5-61.2,212.4-3.8c44,38.3,53.6,65.1,61.2,162.7l7.7,118.7h430.6h430.6l55.5,55.5l55.5,55.5v1360.6v1358.7l-45.9,53.6l-45.9,53.6l-4131.7,3.8C2069.2-1506.6,1209.9-1510.4,1171.7-1529.6z"/><path d="M2117-4172.4c-40.2-34.4-53.6-61.2-53.6-116.7s13.4-82.3,53.6-116.7l51.7-45.9H4999h2830.4l51.7,45.9c74.6,63.1,74.6,170.3,0,233.5l-51.7,45.9H4999H2168.7L2117-4172.4z"/></g></g>
</svg>