<?xml version="1.0" encoding="UTF-8" ?>
<!DOCTYPE svg PUBLIC "-//W3C//DTD SVG 1.1//EN" "http://www.w3.org/Graphics/SVG/1.1/DTD/svg11.dtd">
<svg width="481pt" height="480pt" viewBox="0 0 481 480" version="1.1" xmlns="http://www.w3.org/2000/svg">
<g id="#000000ff">
<path fill="#000000" opacity="1.00" d=" M 3.77 0.00 L 476.93 0.00 C 478.41 1.31 479.76 2.76 481.00 4.30 L 481.00 475.61 C 479.77 477.18 478.43 478.66 476.95 480.00 L 4.01 480.00 C 2.60 478.22 0.66 476.50 0.68 474.04 C 0.36 468.70 0.67 463.34 0.59 458.00 C 0.58 310.33 0.62 162.67 0.57 15.00 C 0.73 9.89 -0.63 3.79 3.77 0.00 M 12.71 12.05 C 12.44 38.70 12.67 65.35 12.60 92.00 C 12.67 217.32 12.45 342.64 12.71 467.95 C 111.47 468.07 210.24 467.96 309.00 468.00 C 362.20 467.90 415.41 468.19 468.60 467.86 C 468.58 315.95 468.58 164.05 468.60 12.14 C 457.41 11.80 446.20 12.10 435.00 12.00 C 294.24 12.04 153.47 11.93 12.71 12.05 Z" />
<path fill="#000000" opacity="1.00" d=" M 57.27 49.15 C 59.43 48.41 61.76 48.62 64.00 48.56 C 116.01 48.67 168.03 48.50 220.03 48.64 C 224.01 48.35 226.66 52.27 226.19 55.95 C 226.20 109.32 226.16 162.69 226.21 216.05 C 226.14 218.23 226.15 220.81 224.34 222.35 C 222.66 223.91 220.20 223.73 218.07 223.83 C 165.70 223.77 113.33 223.82 60.96 223.80 C 58.44 223.90 55.46 223.09 54.52 220.46 C 53.63 217.40 54.08 214.14 53.98 210.99 C 54.02 159.30 54.00 107.61 53.99 55.92 C 53.88 53.33 54.52 50.14 57.27 49.15 M 66.05 60.71 C 65.97 111.23 65.96 161.76 66.06 212.28 C 115.40 212.46 164.75 212.47 214.10 212.27 C 214.24 161.76 214.24 111.23 214.10 60.71 C 211.73 60.62 209.36 60.56 207.00 60.57 C 160.02 60.71 113.03 60.43 66.05 60.71 Z" />
<path fill="#000000" opacity="1.00" d=" M 262.31 49.20 C 264.44 48.39 266.76 48.63 268.99 48.56 C 289.00 48.69 309.02 48.47 329.03 48.66 C 333.82 48.30 336.33 54.29 333.90 57.98 C 332.34 60.75 328.81 60.61 326.06 60.63 C 305.73 60.50 285.38 60.72 265.05 60.52 C 259.06 60.87 256.89 51.60 262.31 49.20 Z" />
<path fill="#000000" opacity="1.00" d=" M 360.44 49.33 C 362.16 48.51 364.12 48.64 365.97 48.56 C 385.66 48.61 405.34 48.61 425.02 48.56 C 426.87 48.65 428.85 48.52 430.54 49.44 C 434.06 51.54 434.10 57.49 430.64 59.67 C 428.96 60.67 426.92 60.54 425.05 60.62 C 405.35 60.58 385.65 60.57 365.95 60.63 C 364.06 60.55 362.03 60.69 360.31 59.77 C 356.61 57.66 356.65 51.33 360.44 49.33 Z" />
<path fill="#000000" opacity="1.00" d=" M 263.27 87.29 C 266.15 86.78 269.10 87.02 272.01 86.98 C 323.69 87.05 375.38 86.93 427.07 87.04 C 431.96 86.46 434.80 92.48 432.33 96.34 C 430.92 98.95 427.66 99.04 425.07 99.03 C 371.71 98.92 318.34 99.10 264.98 98.94 C 258.36 99.54 256.97 88.63 263.27 87.29 Z" />
<path fill="#000000" opacity="1.00" d=" M 263.27 129.29 C 266.15 128.78 269.10 129.02 272.01 128.98 C 323.69 129.05 375.38 128.93 427.07 129.04 C 431.96 128.46 434.80 134.48 432.33 138.34 C 430.92 140.95 427.66 141.04 425.07 141.03 C 371.71 140.92 318.34 141.10 264.99 140.94 C 258.36 141.54 256.97 130.64 263.27 129.29 Z" />
<path fill="#000000" opacity="1.00" d=" M 263.39 170.65 C 266.90 170.12 270.47 170.44 274.00 170.38 C 324.67 170.39 375.35 170.39 426.02 170.38 C 427.79 170.45 429.78 170.48 431.21 171.71 C 433.89 174.03 433.87 178.83 431.15 181.11 C 429.72 182.28 427.78 182.31 426.04 182.39 C 373.02 182.40 319.99 182.37 266.97 182.41 C 264.94 182.32 262.63 182.42 261.04 180.95 C 257.80 178.09 258.86 171.50 263.39 170.65 Z" />
<path fill="#000000" opacity="1.00" d=" M 263.39 212.65 C 266.90 212.12 270.47 212.44 274.00 212.38 C 322.33 212.39 370.67 212.40 419.00 212.38 C 422.44 212.46 425.94 212.06 429.35 212.75 C 433.96 213.97 434.52 221.22 430.54 223.53 C 429.17 224.30 427.56 224.31 426.05 224.39 C 373.02 224.40 319.99 224.37 266.96 224.41 C 264.94 224.32 262.63 224.42 261.03 222.95 C 257.80 220.08 258.86 213.50 263.39 212.65 Z" />
<path fill="#000000" opacity="1.00" d=" M 58.40 251.61 C 61.91 251.14 65.47 251.44 69.00 251.38 C 119.01 251.40 169.02 251.39 219.02 251.38 C 221.79 251.18 224.91 252.41 225.76 255.28 C 226.55 258.79 226.11 262.43 226.20 266.00 C 226.18 317.02 226.18 368.04 226.20 419.06 C 226.11 421.01 226.16 423.26 224.71 424.78 C 223.05 426.67 220.34 426.56 218.05 426.62 C 165.39 426.53 112.72 426.67 60.06 426.55 C 56.45 426.87 53.59 423.58 54.02 420.07 C 53.99 366.03 53.99 311.98 54.01 257.93 C 53.80 255.14 55.39 251.99 58.40 251.61 M 66.14 263.38 C 65.83 269.58 66.06 275.79 66.00 282.00 C 66.05 326.36 65.90 370.73 66.07 415.09 C 115.41 415.24 164.76 415.25 214.09 415.09 C 214.33 366.73 214.08 318.36 214.22 269.99 C 214.23 267.79 214.11 265.59 213.93 263.40 C 164.67 263.38 115.40 263.41 66.14 263.38 Z" />
<path fill="#000000" opacity="1.00" d=" M 263.39 251.65 C 265.23 251.31 267.10 251.37 268.96 251.35 C 288.96 251.48 308.95 251.28 328.94 251.44 C 333.78 251.05 336.38 257.13 333.87 260.86 C 332.48 263.23 329.48 263.42 327.04 263.41 C 307.01 263.38 286.99 263.39 266.97 263.41 C 264.73 263.40 262.16 263.21 260.64 261.33 C 257.86 258.37 259.16 252.43 263.39 251.65 Z" />
<path fill="#000000" opacity="1.00" d=" M 362.39 251.55 C 382.25 251.14 402.15 251.54 422.02 251.36 C 424.68 251.44 427.46 251.07 430.03 251.99 C 434.06 253.76 434.28 260.34 430.53 262.54 C 428.85 263.45 426.87 263.34 425.03 263.42 C 405.34 263.38 385.66 263.37 365.98 263.42 C 363.68 263.33 360.99 263.54 359.24 261.77 C 356.06 258.65 357.58 251.90 362.39 251.55 Z" />
<path fill="#000000" opacity="1.00" d=" M 262.38 290.37 C 263.83 289.82 265.41 289.83 266.95 289.78 C 320.32 289.85 373.69 289.72 427.05 289.84 C 431.31 289.36 434.30 293.96 432.90 297.80 C 432.21 300.85 428.90 302.01 426.09 301.80 C 372.40 301.76 318.71 301.88 265.03 301.74 C 258.86 302.31 256.94 292.66 262.38 290.37 Z" />
<path fill="#000000" opacity="1.00" d=" M 262.38 332.37 C 265.49 331.41 268.80 331.87 272.00 331.78 C 323.35 331.82 374.71 331.78 426.06 331.79 C 428.69 331.67 431.85 332.49 432.75 335.31 C 434.48 339.19 431.53 344.26 427.06 343.76 C 373.69 343.87 320.31 343.75 266.93 343.82 C 265.26 343.74 263.48 343.81 261.97 343.01 C 258.08 340.88 258.24 334.12 262.38 332.37 Z" />
<path fill="#000000" opacity="1.00" d=" M 263.36 373.46 C 264.54 373.25 265.73 373.15 266.94 373.16 C 319.98 373.21 373.03 373.17 426.08 373.18 C 427.68 373.26 429.44 373.25 430.82 374.21 C 433.92 376.40 434.00 381.68 431.02 384.01 C 429.60 385.08 427.74 385.09 426.05 385.19 C 373.02 385.20 319.98 385.16 266.95 385.21 C 264.97 385.11 262.73 385.20 261.14 383.84 C 257.79 381.03 258.80 374.35 263.36 373.46 Z" />
<path fill="#000000" opacity="1.00" d=" M 263.35 415.46 C 264.54 415.25 265.73 415.15 266.94 415.16 C 319.99 415.21 373.04 415.17 426.09 415.18 C 427.69 415.26 429.44 415.25 430.82 416.21 C 433.92 418.40 434.00 423.68 431.02 426.01 C 429.61 427.08 427.74 427.09 426.06 427.19 C 374.71 427.20 323.35 427.16 272.00 427.21 C 268.81 427.11 265.49 427.57 262.39 426.60 C 257.69 424.68 258.24 416.44 263.35 415.46 Z" />
</g>
</svg>
